<svg width="21" height="21" viewBox="0 0 21 21" fill="none" xmlns="http://www.w3.org/2000/svg">
<path fill-rule="evenodd" clip-rule="evenodd" d="M9.76872 0.500001H11.7313C13.0035 0.499981 14.0289 0.499966 14.8353 0.608394C15.6727 0.720968 16.3777 0.961799 16.9376 1.52172C17.2152 1.79937 17.4144 2.11268 17.5584 2.46011C18.4254 2.56873 19.1533 2.80729 19.7283 3.38224C20.2882 3.94216 20.529 4.64716 20.6416 5.48447C20.75 6.29095 20.75 7.31636 20.75 8.58854V12.4116C20.75 13.6837 20.75 14.7091 20.6416 15.5156C20.529 16.3529 20.2882 17.0579 19.7283 17.6179C19.1533 18.1928 18.4254 18.4314 17.5584 18.54C17.4144 18.8874 17.2152 19.2007 16.9376 19.4783C16.3777 20.0382 15.6727 20.279 14.8353 20.3916C14.0289 20.5 13.0035 20.5 11.7313 20.5H9.76873C8.49655 20.5 7.47113 20.5 6.66465 20.3916C5.82734 20.279 5.12234 20.0382 4.56242 19.4783C4.2848 19.2007 4.08563 18.8874 3.94163 18.54C3.0746 18.4314 2.34668 18.1928 1.77172 17.6179C1.2118 17.0579 0.970968 16.3529 0.858394 15.5156C0.749966 14.7092 0.749981 13.6837 0.750001 12.4116V8.58854C0.749981 7.31636 0.749966 6.29095 0.858394 5.48447C0.970968 4.64716 1.2118 3.94216 1.77172 3.38224C2.34667 2.80729 3.07458 2.56872 3.94159 2.46011C4.08559 2.11268 4.28477 1.79937 4.56242 1.52172C5.12234 0.961799 5.82734 0.720968 6.66465 0.608394C7.47113 0.499966 8.49654 0.499981 9.76872 0.500001ZM3.61366 3.933C3.20658 4.0311 2.95279 4.17448 2.75838 4.3689C2.50093 4.62635 2.33307 4.98781 2.2413 5.67039C2.14683 6.37305 2.14535 7.30431 2.14535 8.63958V12.3605C2.14535 13.6958 2.14683 14.6271 2.2413 15.3297C2.33307 16.0123 2.50093 16.3737 2.75838 16.6312C2.9528 16.8256 3.20658 16.969 3.61367 17.0671C3.54067 16.3125 3.54068 15.387 3.5407 14.272V6.72802C3.54068 5.61304 3.54067 4.68762 3.61366 3.933ZM17.8863 17.0671C18.2934 16.969 18.5472 16.8256 18.7416 16.6312C18.9991 16.3737 19.1669 16.0123 19.2587 15.3297C19.3532 14.6271 19.3547 13.6958 19.3547 12.3605V8.63958C19.3547 7.30431 19.3532 6.37305 19.2587 5.67039C19.1669 4.98781 18.9991 4.62635 18.7416 4.3689C18.5472 4.17448 18.2934 4.0311 17.8863 3.933C17.9593 4.68762 17.9593 5.61305 17.9593 6.72803V14.272C17.9593 15.387 17.9593 16.3125 17.8863 17.0671ZM6.85058 1.9913C6.168 2.08307 5.80653 2.25093 5.54908 2.50838C5.29163 2.76584 5.12377 3.1273 5.032 3.80988C4.93753 4.51253 4.93605 5.4438 4.93605 6.77907V14.2209C4.93605 15.5562 4.93753 16.4875 5.032 17.1901C5.12377 17.8727 5.29163 18.2342 5.54908 18.4916C5.80653 18.7491 6.168 18.9169 6.85058 19.0087C7.55323 19.1032 8.4845 19.1047 9.81977 19.1047H11.6802C13.0155 19.1047 13.9468 19.1032 14.6494 19.0087C15.332 18.9169 15.6935 18.7491 15.9509 18.4916C16.2084 18.2342 16.3762 17.8727 16.468 17.1901C16.5625 16.4875 16.564 15.5562 16.564 14.2209V6.77907C16.564 5.4438 16.5625 4.51253 16.468 3.80988C16.3762 3.1273 16.2084 2.76584 15.9509 2.50838C15.6935 2.25093 15.332 2.08307 14.6494 1.9913C13.9468 1.89683 13.0155 1.89535 11.6802 1.89535H9.81977C8.4845 1.89535 7.55323 1.89683 6.85058 1.9913ZM7.26163 7.7093C7.26163 7.32399 7.57399 7.01163 7.9593 7.01163H13.5407C13.926 7.01163 14.2384 7.32399 14.2384 7.7093C14.2384 8.09462 13.926 8.40698 13.5407 8.40698H7.9593C7.57399 8.40698 7.26163 8.09462 7.26163 7.7093ZM7.26163 11.4302C7.26163 11.0449 7.57399 10.7326 7.9593 10.7326H13.5407C13.926 10.7326 14.2384 11.0449 14.2384 11.4302C14.2384 11.8155 13.926 12.1279 13.5407 12.1279H7.9593C7.57399 12.1279 7.26163 11.8155 7.26163 11.4302ZM7.26163 15.1512C7.26163 14.7658 7.57399 14.4535 7.9593 14.4535H10.75C11.1353 14.4535 11.4477 14.7658 11.4477 15.1512C11.4477 15.5365 11.1353 15.8488 10.75 15.8488H7.9593C7.57399 15.8488 7.26163 15.5365 7.26163 15.1512Z" fill="#32C6C3"/>
</svg>
