<svg width="22" height="20" viewBox="0 0 22 20" fill="none" xmlns="http://www.w3.org/2000/svg">
<path fill-rule="evenodd" clip-rule="evenodd" d="M1.1875 10.2175C1.1875 4.83275 5.55272 0.467529 10.9375 0.467529C16.3223 0.467529 20.6875 4.83275 20.6875 10.2175V13.0102C20.7657 12.9826 20.8498 12.9675 20.9375 12.9675C21.3517 12.9675 21.6875 13.3033 21.6875 13.7175V15.7175C21.6875 16.1317 21.3517 16.4675 20.9375 16.4675C20.8469 16.4675 20.76 16.4514 20.6795 16.422C20.674 16.6224 20.6647 16.807 20.6491 16.9762C20.6087 17.4116 20.5216 17.8129 20.3064 18.1888C20.1632 18.4388 19.983 18.6656 19.7716 18.8604C19.4512 19.1557 19.0798 19.3235 18.6687 19.4482C18.2801 19.5659 17.7975 19.6611 17.2259 19.7738L17.1517 19.7884C16.7614 19.8654 16.407 19.9354 16.112 19.9586C15.7946 19.9836 15.4368 19.9662 15.094 19.7732C14.8911 19.659 14.7137 19.5055 14.5709 19.3228C14.3336 19.0193 14.2542 18.6727 14.2199 18.3537C14.1874 18.0529 14.1875 17.6819 14.1875 17.2654V12.0292C14.1875 11.6753 14.1875 11.3574 14.2129 11.0963C14.24 10.8177 14.3022 10.5166 14.4856 10.2378C14.6366 10.008 14.8391 9.81528 15.0786 9.67722C15.3737 9.50716 15.6813 9.46949 15.959 9.4676C16.2157 9.46586 16.5238 9.49626 16.8598 9.52942L16.9298 9.53633C17.5155 9.59406 18.0082 9.64264 18.4075 9.72173C18.6812 9.77593 18.9406 9.8495 19.1837 9.96608C19.0508 5.52606 15.4097 1.96753 10.9375 1.96753C6.46527 1.96753 2.82418 5.52606 2.69126 9.96608C2.93443 9.8495 3.19381 9.77593 3.46746 9.72173C3.86676 9.64264 4.35951 9.59406 4.94516 9.53633L5.01524 9.52942C5.35122 9.49626 5.6593 9.46586 5.91596 9.4676C6.19369 9.46949 6.50126 9.50716 6.79637 9.67722C7.03595 9.81528 7.23837 10.008 7.38944 10.2378C7.57281 10.5166 7.635 10.8177 7.66213 11.0963C7.68755 11.3574 7.68753 11.6753 7.6875 12.0292V17.2654C7.68753 17.6819 7.68756 18.0529 7.65515 18.3537C7.62078 18.6727 7.54141 19.0193 7.30412 19.3228C7.16134 19.5055 6.98395 19.659 6.78097 19.7732C6.43817 19.9662 6.08041 19.9836 5.76298 19.9586C5.46805 19.9354 5.11362 19.8654 4.72334 19.7884L4.64907 19.7738C4.07748 19.6611 3.59494 19.5659 3.20635 19.4482C2.79519 19.3235 2.42384 19.1557 2.1034 18.8604C1.89198 18.6656 1.71182 18.4388 1.56863 18.1888C1.35339 17.8129 1.26629 17.4116 1.22595 16.9762C1.21027 16.807 1.20098 16.6224 1.19548 16.422C1.11504 16.4514 1.02815 16.4675 0.9375 16.4675C0.523286 16.4675 0.1875 16.1317 0.1875 15.7175V13.7175C0.1875 13.3033 0.523286 12.9675 0.9375 12.9675C1.02516 12.9675 1.10931 12.9826 1.1875 13.0102V10.2175ZM2.6875 15.4108C2.6875 16.0624 2.68825 16.5 2.71955 16.8378C2.7497 17.1632 2.80359 17.3269 2.87032 17.4434C2.93822 17.562 3.02264 17.6677 3.11992 17.7573C3.21184 17.8421 3.34763 17.9236 3.64148 18.0127C3.94985 18.1061 4.35823 18.1875 4.97488 18.3092C5.41649 18.3962 5.68375 18.4477 5.88084 18.4633C5.98711 18.4716 6.03554 18.4656 6.05172 18.4623C6.07665 18.4472 6.10042 18.4267 6.12113 18.4006C6.1273 18.3884 6.14834 18.3363 6.16378 18.193C6.18647 17.9824 6.1875 17.6936 6.1875 17.2279V12.0622C6.1875 11.6649 6.18667 11.4212 6.16919 11.2417C6.15698 11.1163 6.1401 11.0709 6.13552 11.061C6.11211 11.0256 6.0832 10.9986 6.05248 10.9799C6.03932 10.9763 5.99808 10.9682 5.90575 10.9676C5.73788 10.9664 5.50987 10.9879 5.12804 11.0256C4.49732 11.0878 4.07792 11.13 3.7589 11.1931C3.45319 11.2537 3.31142 11.3212 3.21613 11.393C3.0763 11.4984 2.95683 11.6343 2.86677 11.7935C2.80231 11.9075 2.74885 12.0717 2.71902 12.4023C2.68821 12.744 2.6875 13.1874 2.6875 13.8451V15.4108ZM19.1875 13.8451C19.1875 13.1874 19.1868 12.744 19.156 12.4023C19.1261 12.0717 19.0727 11.9075 19.0082 11.7935C18.9182 11.6343 18.7987 11.4984 18.6589 11.393C18.5636 11.3212 18.4218 11.2537 18.1161 11.1931C17.7971 11.13 17.3777 11.0878 16.747 11.0256C16.3651 10.9879 16.1371 10.9664 15.9693 10.9676C15.8769 10.9682 15.8357 10.9763 15.8225 10.9799C15.7918 10.9986 15.7629 11.0256 15.7395 11.061C15.7349 11.0709 15.718 11.1163 15.7058 11.2417C15.6883 11.4212 15.6875 11.6649 15.6875 12.0622V17.2279C15.6875 17.6936 15.6885 17.9824 15.7112 18.193C15.7267 18.3363 15.7477 18.3884 15.7539 18.4006C15.7746 18.4267 15.7984 18.4472 15.8233 18.4623C15.8395 18.4656 15.8879 18.4716 15.9942 18.4633C16.1913 18.4477 16.4585 18.3962 16.9001 18.3092C17.5168 18.1875 17.9251 18.1061 18.2335 18.0127C18.5274 17.9236 18.6632 17.8421 18.7551 17.7573C18.8524 17.6677 18.9368 17.562 19.0047 17.4434C19.0714 17.3269 19.1253 17.1632 19.1555 16.8378C19.1868 16.5 19.1875 16.0624 19.1875 15.4108V13.8451Z" fill="#32C6C3"/>
</svg>
