<svg width="22" height="14" viewBox="0 0 22 14" fill="none" xmlns="http://www.w3.org/2000/svg">
<path fill-rule="evenodd" clip-rule="evenodd" d="M21.4619 0.896718C21.4619 1.39197 21.0604 1.79346 20.5652 1.79346L1.43474 1.79346C0.939484 1.79346 0.538 1.39197 0.538 0.896718C0.538 0.401463 0.939484 -2.12193e-05 1.43474 -2.12193e-05L20.5652 -2.12193e-05C21.0604 -2.12193e-05 21.4619 0.401463 21.4619 0.896718Z" fill="#9399A6"/>
<path fill-rule="evenodd" clip-rule="evenodd" d="M21.4619 6.87499C21.4619 7.37024 21.0604 7.77173 20.5652 7.77173L1.43474 7.77173C0.939484 7.77173 0.538 7.37024 0.538 6.87499C0.538 6.37973 0.939484 5.97825 1.43474 5.97825L20.5652 5.97825C21.0604 5.97825 21.4619 6.37973 21.4619 6.87499Z" fill="#9399A6"/>
<path fill-rule="evenodd" clip-rule="evenodd" d="M21.4619 12.8533C21.4619 13.3485 21.0604 13.75 20.5652 13.75L1.43474 13.75C0.939484 13.75 0.538 13.3485 0.538 12.8533C0.538 12.358 0.939484 11.9565 1.43474 11.9565L20.5652 11.9565C21.0604 11.9565 21.4619 12.358 21.4619 12.8533Z" fill="#9399A6"/>
</svg>
