<svg width="20" height="21" viewBox="0 0 20 21" fill="none" xmlns="http://www.w3.org/2000/svg">
<g clip-path="url(#clip0_35_1216)">
<path d="M2.89063 20.4675C2.78832 20.3898 2.66044 20.4028 2.54456 20.3736C1.0324 19.9889 0.0020212 18.6746 0.00097725 17.1076C-0.00163263 12.7006 -6.67006e-05 8.29352 0.000455275 3.88596C0.000455275 3.42976 0.27397 3.12284 0.677979 3.12284C1.08251 3.12284 1.35916 3.42924 1.35916 3.88492C1.35968 7.11386 1.35968 10.3428 1.35968 13.5717C1.35968 14.7237 1.35863 15.8763 1.3602 17.0283C1.36177 18.2862 2.20893 19.137 3.46219 19.1376C7.61503 19.1386 11.7679 19.1386 15.9212 19.1376C16.9928 19.1376 17.8003 18.484 17.9856 17.4651C18.0123 17.319 18.0128 17.1671 18.0128 17.0178C18.0143 12.6499 18.0143 8.28152 18.0133 3.91363C18.0133 2.64366 17.1672 1.79806 15.8988 1.79754C12.6312 1.79702 9.36365 1.79598 6.09556 1.79806C5.02342 1.79859 4.22323 2.46567 4.04367 3.50649C4.01862 3.65264 4.02123 3.80454 4.02123 3.95382C4.02019 8.30866 4.02071 12.664 4.02019 17.0189C4.02019 17.5784 3.49038 17.9156 3.02635 17.6499C2.79981 17.5205 2.68863 17.32 2.68967 17.0544C2.69228 16.1691 2.69072 15.2838 2.69072 14.3985C2.69072 10.883 2.68915 7.36806 2.69176 3.85256C2.6928 2.26053 3.70805 0.947765 5.22595 0.565158C5.49163 0.498345 5.76254 0.467548 6.03762 0.467548C9.36365 0.468592 12.6902 0.46546 16.0162 0.469114C17.8953 0.471202 19.3704 1.94526 19.372 3.82698C19.3762 8.25385 19.373 12.6802 19.3736 17.1071C19.3736 18.9559 17.9491 20.2906 16.4453 20.4347C16.4312 20.4362 16.4187 20.4561 16.4051 20.4675C11.8999 20.4675 7.39528 20.4675 2.89063 20.4675Z" fill="#32C6C3"/>
<path d="M11.0021 5.80104C9.32965 5.80104 7.65776 5.80104 5.98535 5.80104C5.59074 5.80104 5.28956 5.5176 5.2833 5.14178C5.27703 4.76283 5.585 4.46426 5.98796 4.46426C9.33904 4.46374 12.6901 4.46374 16.0412 4.46426C16.4478 4.46426 16.7532 4.75291 16.7527 5.13447C16.7521 5.5176 16.4463 5.80051 16.0386 5.80051C14.3599 5.79947 12.6813 5.79999 11.0026 5.79999C11.0021 5.80052 11.0021 5.80052 11.0021 5.80104Z" fill="#32C6C3"/>
<path d="M11.0733 15.1444C12.7321 15.1444 14.3904 15.1444 16.0493 15.1444C16.4496 15.1444 16.7456 15.421 16.7524 15.7979C16.7592 16.1768 16.4507 16.4775 16.0503 16.4775C12.7462 16.4775 9.44159 16.4759 6.13749 16.477C5.86084 16.477 5.64213 16.3767 5.50433 16.134C5.37958 15.9132 5.38062 15.6836 5.51216 15.4664C5.65205 15.2357 5.86502 15.1423 6.13592 15.1433C7.78171 15.1475 9.4275 15.1454 11.0728 15.1454C11.0733 15.1449 11.0733 15.1449 11.0733 15.1444Z" fill="#32C6C3"/>
<path d="M14.079 9.80574C13.4291 9.80574 12.7793 9.80627 12.1294 9.80522C11.7217 9.8047 11.4169 9.51761 11.4185 9.13814C11.4195 8.75918 11.7233 8.47523 12.133 8.47523C13.4396 8.47419 14.7461 8.47419 16.052 8.47471C16.4472 8.47471 16.7468 8.75814 16.752 9.13188C16.7577 9.51135 16.4534 9.8047 16.0489 9.80574C15.3923 9.80679 14.7356 9.80574 14.079 9.80574Z" fill="#32C6C3"/>
<path d="M14.0827 13.1339C13.4391 13.1339 12.7955 13.1198 12.1525 13.1391C11.7636 13.1506 11.4274 12.8755 11.4191 12.472C11.4113 12.0863 11.7234 11.8034 12.1483 11.8034C13.448 11.8023 14.7482 11.8018 16.048 11.8013C16.4478 11.8013 16.7563 12.0993 16.7516 12.4783C16.7469 12.8546 16.4515 13.1339 16.0516 13.1349C15.395 13.1365 14.7389 13.1354 14.0822 13.1354C14.0827 13.1349 14.0827 13.1344 14.0827 13.1339Z" fill="#32C6C3"/>
<path d="M10.7042 10.8146C10.7042 10.2748 10.7057 9.7346 10.7036 9.19488C10.7005 8.37694 10.1342 7.8106 9.31831 7.80904C8.45966 7.80747 7.60101 7.80747 6.74288 7.80904C5.92965 7.8106 5.35756 8.3806 5.35547 9.19592C5.35286 10.2691 5.35286 11.3423 5.35547 12.4155C5.35756 13.1995 5.88789 13.7773 6.66615 13.7961C7.57596 13.8185 8.48732 13.818 9.39713 13.7961C10.1702 13.7773 10.6995 13.2057 10.7042 12.4343C10.7062 11.8945 10.7042 11.3543 10.7042 10.8146ZM9.37677 12.3194C9.37729 12.4332 9.35798 12.4744 9.23062 12.4734C8.43147 12.4666 7.63181 12.4677 6.83214 12.4729C6.71156 12.4739 6.6792 12.44 6.68077 12.3199C6.68755 11.8131 6.6839 11.3057 6.6839 10.7989C6.6839 10.2983 6.68808 9.79776 6.68077 9.29771C6.67868 9.17139 6.71156 9.13485 6.84049 9.1359C7.63337 9.14216 8.42625 9.14216 9.21913 9.1359C9.35015 9.13485 9.37677 9.174 9.37625 9.29771C9.37207 10.3041 9.37259 11.312 9.37677 12.3194Z" fill="#32C6C3"/>
</g>
<defs>
<clipPath id="clip0_35_1216">
<rect width="19.3742" height="20" fill="white" transform="translate(0 0.467529)"/>
</clipPath>
</defs>
</svg>
