<svg width="20" height="22" viewBox="0 0 20 22" fill="none" xmlns="http://www.w3.org/2000/svg">
<path d="M1 9.41666C1 6.21907 1 4.62028 1.37752 4.08241C1.75503 3.54454 3.25832 3.02996 6.26491 2.00079L6.83772 1.80472C8.40498 1.26824 9.18861 1 10 1C10.8114 1 11.595 1.26824 13.1623 1.80472L13.7351 2.00079C16.7417 3.02996 18.245 3.54454 18.6225 4.08241C19 4.62028 19 6.21907 19 9.41666C19 9.89965 19 10.4234 19 10.9914C19 16.6294 14.761 19.3655 12.1014 20.5273C11.38 20.8424 11.0193 21 10 21C8.98074 21 8.62001 20.8424 7.89856 20.5273C5.23896 19.3655 1 16.6294 1 10.9914C1 10.4234 1 9.89965 1 9.41666Z" stroke="#32C6C3" stroke-width="1.5"/>
<path d="M9.5 15H10.5C11.0523 15 11.5 14.5523 11.5 14V12.5987C12.3967 12.0799 13 11.1104 13 10C13 8.34315 11.6569 7 10 7C8.34315 7 7 8.34315 7 10C7 11.1104 7.6033 12.0799 8.5 12.5987V14C8.5 14.5523 8.94772 15 9.5 15Z" stroke="#32C6C3" stroke-width="1.5" stroke-linejoin="round"/>
</svg>
