<svg width="18" height="21" viewBox="0 0 18 21" fill="none" xmlns="http://www.w3.org/2000/svg">
<path fill-rule="evenodd" clip-rule="evenodd" d="M0.8125 8.74036C0.8125 4.18313 4.44507 0.467529 8.95203 0.467529C13.459 0.467529 17.0916 4.18313 17.0916 8.74036C17.0916 10.9405 16.4646 13.3028 15.3562 15.3437C14.2491 17.3821 12.6317 19.1533 10.6083 20.0991C9.55721 20.5904 8.34686 20.5904 7.29575 20.0991C5.27238 19.1533 3.65494 17.3821 2.5479 15.3437C1.4395 13.3028 0.8125 10.9405 0.8125 8.74036ZM8.95203 1.86288C5.23895 1.86288 2.20785 4.9303 2.20785 8.74036C2.20785 10.6911 2.76844 12.8261 3.77409 14.6777C4.7811 16.5319 6.20415 18.0486 7.88659 18.835C8.56325 19.1513 9.34082 19.1513 10.0175 18.835C11.6999 18.0486 13.123 16.5319 14.13 14.6777C15.1356 12.8261 15.6962 10.6911 15.6962 8.74036C15.6962 4.9303 12.6651 1.86288 8.95203 1.86288ZM8.95203 6.51404C7.79609 6.51404 6.85901 7.45112 6.85901 8.60706C6.85901 9.76301 7.79609 10.7001 8.95203 10.7001C10.108 10.7001 11.0451 9.76301 11.0451 8.60706C11.0451 7.45112 10.108 6.51404 8.95203 6.51404ZM5.46366 8.60706C5.46366 6.68049 7.02546 5.11869 8.95203 5.11869C10.8786 5.11869 12.4404 6.68049 12.4404 8.60706C12.4404 10.5336 10.8786 12.0954 8.95203 12.0954C7.02546 12.0954 5.46366 10.5336 5.46366 8.60706Z" fill="#32C6C3"/>
</svg>
