<svg width="20" height="23" viewBox="0 0 20 23" fill="none" xmlns="http://www.w3.org/2000/svg">
<path d="M19.125 15.4659V10.4725C19.125 6.18391 19.125 4.0396 17.807 2.7073C16.489 1.375 14.3676 1.375 10.125 1.375C5.88236 1.375 3.76104 1.375 2.44302 2.7073C1.125 4.0396 1.125 6.18391 1.125 10.4725V15.4659C1.125 18.5625 1.125 20.1108 1.85911 20.7873C2.20921 21.11 2.65115 21.3127 3.12192 21.3665C4.10902 21.4795 5.26173 20.4599 7.56716 18.4208C8.58622 17.5195 9.09575 17.0688 9.68528 16.9501C9.97557 16.8916 10.2744 16.8916 10.5647 16.9501C11.1542 17.0688 11.6638 17.5195 12.6828 18.4208C14.9883 20.4599 16.141 21.4795 17.1281 21.3665C17.5989 21.3127 18.0408 21.11 18.3909 20.7873C19.125 20.1108 19.125 18.5625 19.125 15.4659Z" stroke="#32C6C3" stroke-width="1.5"/>
</svg>
