<svg width="20" height="21" viewBox="0 0 20 21" fill="none" xmlns="http://www.w3.org/2000/svg">
<path fill-rule="evenodd" clip-rule="evenodd" d="M9.53488 2.08041C5.03954 2.08041 1.39535 5.7246 1.39535 10.2199C1.39535 14.7153 5.03954 18.3595 9.53488 18.3595C14.0302 18.3595 17.6744 14.7153 17.6744 10.2199C17.6744 5.7246 14.0302 2.08041 9.53488 2.08041ZM0 10.2199C0 4.95397 4.26891 0.685059 9.53488 0.685059C14.8009 0.685059 19.0698 4.95397 19.0698 10.2199C19.0698 12.6018 18.1964 14.7797 16.7524 16.4508L19.7957 19.4941C20.0681 19.7665 20.0681 20.2083 19.7957 20.4807C19.5232 20.7532 19.0815 20.7532 18.809 20.4807L15.7658 17.4375C14.0946 18.8815 11.9168 19.7548 9.53488 19.7548C4.26891 19.7548 0 15.4859 0 10.2199Z" fill="#9399A6"/>
</svg>
