<svg width="21" height="22" viewBox="0 0 21 22" fill="none" xmlns="http://www.w3.org/2000/svg">
<path d="M16.18 7.0718L16.6435 6.60836C17.4113 5.84051 18.6563 5.84051 19.4241 6.60836C20.192 7.37621 20.192 8.62115 19.4241 9.389L18.9607 9.85244M16.18 7.0718C16.18 7.0718 16.238 8.05661 17.1069 8.92556C17.9759 9.79451 18.9607 9.85244 18.9607 9.85244M16.18 7.0718L11.9194 11.3324C11.6308 11.621 11.4865 11.7653 11.3624 11.9244C11.2161 12.1121 11.0906 12.3151 10.9882 12.53C10.9014 12.7121 10.8368 12.9057 10.7078 13.2929L10.2946 14.5325L10.1609 14.9335M18.9607 9.85244L14.7001 14.1131C14.4115 14.4016 14.2672 14.5459 14.1081 14.67C13.9204 14.8164 13.7173 14.9419 13.5025 15.0443C13.3203 15.1311 13.1268 15.1956 12.7396 15.3247L11.5 15.7379L11.099 15.8716M11.099 15.8716L10.6979 16.0052C10.5074 16.0688 10.2973 16.0192 10.1553 15.8772C10.0133 15.7351 9.96371 15.5251 10.0272 15.3345L10.1609 14.9335M11.099 15.8716L10.1609 14.9335" stroke="#32C6C3" stroke-width="1.5"/>
<path d="M6 12.0325H8.5" stroke="#32C6C3" stroke-width="1.5" stroke-linecap="round"/>
<path d="M6 8.03247H12.5" stroke="#32C6C3" stroke-width="1.5" stroke-linecap="round"/>
<path d="M6 16.0325H7.5" stroke="#32C6C3" stroke-width="1.5" stroke-linecap="round"/>
<path d="M17.8284 2.20404C16.6569 1.03247 14.7712 1.03247 11 1.03247H9C5.22876 1.03247 3.34315 1.03247 2.17157 2.20404C1 3.37562 1 5.26123 1 9.03247V13.0325C1 16.8037 1 18.6893 2.17157 19.8609C3.34315 21.0325 5.22876 21.0325 9 21.0325H11C14.7712 21.0325 16.6569 21.0325 17.8284 19.8609C18.7715 18.9178 18.9554 17.512 18.9913 15.0325" stroke="#32C6C3" stroke-width="1.5" stroke-linecap="round"/>
</svg>
